<svg xmlns="http://www.w3.org/2000/svg" width="128.47" height="881.32" viewBox="0 0 128.47 881.32">
  <path id="Path_67" data-name="Path 67" d="M98.28-78.12A22.571,22.571,0,0,1,94.5-65.31a45.535,45.535,0,0,1-5.25,5.775,61.015,61.015,0,0,1-6.09,5.355,25.117,25.117,0,0,1-14.91,4.62H31.29V0H9.24V-125.58H68.25a25.117,25.117,0,0,1,14.91,4.62,48.183,48.183,0,0,1,5.985,5.46,56.21,56.21,0,0,1,5.355,6.09A22.571,22.571,0,0,1,98.28-96.6Zm-22.05-.21V-96.39a3.6,3.6,0,0,0-.21-1.47q-3.57-6.3-6.72-6.72H31.29v34.02H68.25q1.47,0,3.99-2.31a18.311,18.311,0,0,0,3.78-4.62A1.864,1.864,0,0,0,76.23-78.33Zm134.82.21a22.571,22.571,0,0,1-3.78,12.81,45.534,45.534,0,0,1-5.25,5.775,61.015,61.015,0,0,1-6.09,5.355,17.431,17.431,0,0,1-5.46,2.94L215.46,0H191.52L168.21-49.56H144.06V0H122.01V-125.58h59.01a25.118,25.118,0,0,1,14.91,4.62,48.183,48.183,0,0,1,5.985,5.46,56.209,56.209,0,0,1,5.355,6.09,22.571,22.571,0,0,1,3.78,12.81ZM189-78.33V-96.39a3.6,3.6,0,0,0-.21-1.47q-3.57-6.3-6.72-6.72H144.06v34.02h36.96q1.47,0,3.99-2.31a18.312,18.312,0,0,0,3.78-4.62A1.864,1.864,0,0,0,189-78.33ZM339.15-29.82a21.074,21.074,0,0,1-3.36,11.97,89.868,89.868,0,0,1-7.455,8.4,41.311,41.311,0,0,1-7.875,6.72,24.264,24.264,0,0,1-13.02,3.78H275.52A24.264,24.264,0,0,1,262.5-2.73a44.275,44.275,0,0,1-8.085-6.825,60.385,60.385,0,0,1-7.245-8.3,21.074,21.074,0,0,1-3.36-11.97V-95.55a21.074,21.074,0,0,1,3.36-11.97,60.385,60.385,0,0,1,7.245-8.295,44.275,44.275,0,0,1,8.085-6.825,24.264,24.264,0,0,1,13.02-3.78h31.92a24.264,24.264,0,0,1,13.02,3.78,41.312,41.312,0,0,1,7.875,6.72,89.878,89.878,0,0,1,7.455,8.4,21.074,21.074,0,0,1,3.36,11.97Zm-73.29-65.1v64.89a1.216,1.216,0,0,0,.21.84,26.831,26.831,0,0,0,9.24,9.03,2.337,2.337,0,0,0,1.05.21H306.6a2.338,2.338,0,0,0,1.05-.21,26.83,26.83,0,0,0,9.24-9.03l.21-.84V-94.92a1.661,1.661,0,0,0-.21-1.05q-4.41-6.51-9.24-9.24a2.338,2.338,0,0,0-1.05-.21H276.36a1.661,1.661,0,0,0-1.05.21q-4.83,2.73-9.24,9.24ZM435.54-29.61a21.43,21.43,0,0,1-3.57,11.97,88.056,88.056,0,0,1-7.14,8.19,39.346,39.346,0,0,1-7.77,6.72,25.734,25.734,0,0,1-13.02,3.78H388.5q-13.86,0-26.88-17.43a81.283,81.283,0,0,1-4.2-7.98l21.21-5.67q3.36,7.35,8.4,9.87a3.476,3.476,0,0,0,1.68.21h14.28q1.05.21,5.775-4.305t4.725-5.565v-95.76h22.05ZM545.37,0H466.41V-125.58h78.96v21H488.46v31.71h52.92v21H488.46V-21h56.91ZM663.81-24.36a41.608,41.608,0,0,1-4.41,7.98Q646.38,1.05,632.73,1.05H606.48a24.264,24.264,0,0,1-13.02-3.78,47.491,47.491,0,0,1-8.19-6.93,70.645,70.645,0,0,1-7.14-7.98,21.075,21.075,0,0,1-3.36-11.97V-95.76a20.7,20.7,0,0,1,3.36-11.76,60.388,60.388,0,0,1,7.245-8.295,44.274,44.274,0,0,1,8.085-6.825,26.527,26.527,0,0,1,13.02-3.78h26.25q13.44,0,26.67,17.43a79.479,79.479,0,0,1,4.41,7.35l-21.42,6.09q-6.3-7.77-9.45-9.66a1.216,1.216,0,0,0-.84-.21H607.32l-.84.21a25.832,25.832,0,0,0-9.45,9.24,7.149,7.149,0,0,0-.21,2.31v63.84q0,1.68,3.465,4.935a30.944,30.944,0,0,0,6.2,4.725,2.792,2.792,0,0,0,1.47.21h23.94a2.337,2.337,0,0,0,1.05-.21,14.76,14.76,0,0,0,4.305-3.36,40.047,40.047,0,0,0,3.885-4.62l1.26-1.89Zm110.46-80.22H740.25V0H718.2V-104.58H684.18v-21h90.09ZM889.56-29.82q0,7.35-3.36,11.97a63.165,63.165,0,0,1-7.14,8.3q-5.04,5.145-8.19,6.825a26.527,26.527,0,0,1-13.02,3.78H821.31q-13.65,0-26.67-17.43a54.779,54.779,0,0,1-3.78-6.51l20.79-6.93a43.605,43.605,0,0,0,9.24,9.66,3.6,3.6,0,0,0,1.47.21H856.8l1.26-.21a28.761,28.761,0,0,0,5.88-4.83q3.57-3.57,3.57-4.83V-42.21q0-3.15-2.52-3.57l-54.6-15.54a20.328,20.328,0,0,1-12.075-8.61,25.358,25.358,0,0,1-4.3-14.28V-95.55q0-7.35,3.15-11.97a72,72,0,0,1,7.245-8.085,48.4,48.4,0,0,1,8.295-7.035,26.527,26.527,0,0,1,13.02-3.78H856.8q13.44,0,26.67,17.43a48.938,48.938,0,0,1,4.2,7.35l-21.21,6.09q-4.83-6.93-9.24-9.66a2.187,2.187,0,0,0-1.26-.21H826.35l-1.26.21a22.939,22.939,0,0,0-5.775,4.62q-3.255,3.36-3.255,4.62v10.5q0,3.15,2.31,3.57l54.81,15.96a20.6,20.6,0,0,1,11.97,8.715,25.089,25.089,0,0,1,4.41,14.175Z" transform="translate(126.92 890.06) rotate(-90)" fill="none" stroke="#707070" stroke-width="1"/>
</svg>
