<svg xmlns="http://www.w3.org/2000/svg" width="163.908" height="172.088" viewBox="0 0 163.908 172.088">
  <g id="after_effects" transform="translate(-879.915 -723)">
    <path id="Path_80" data-name="Path 80" d="M6.832,0l-.72-2.224H1.664L.928,0H-.048L3.168-9.6h1.44L7.824,0ZM1.952-3.12H5.824L3.984-8.688H3.776ZM14.88-8.7H10.3v3.456H14.64v.9H10.3V0H9.376V-9.6h5.5Zm7.936,0H20.08V0h-.928V-8.7H16.416v-.9h6.4ZM30.1,0h-5.5V-9.6h5.5v.9H25.52v3.456h4.336v.9H25.52V-.9H30.1ZM38.88-6.208a1.441,1.441,0,0,1-.24.832,2.939,2.939,0,0,1-.368.416,6.032,6.032,0,0,1-.448.416,1.444,1.444,0,0,1-.9.3L39.312,0H38.256L35.888-4.24h-2.4V0H32.56V-9.6h4.32a1.516,1.516,0,0,1,.944.3,5.435,5.435,0,0,1,.448.424,3.178,3.178,0,0,1,.368.424,1.441,1.441,0,0,1,.24.832Zm-.928-.032V-7.584a.729.729,0,0,0-.032-.272,2,2,0,0,0-.352-.448,2.237,2.237,0,0,0-.432-.352.561.561,0,0,0-.272-.048H33.488v3.568h3.376a.54.54,0,0,0,.272-.064,2.1,2.1,0,0,0,.448-.344,1.653,1.653,0,0,0,.336-.424A.729.729,0,0,0,37.952-6.24ZM50.528,0h-5.5V-9.6h5.5v.9H45.952v3.456h4.336v.9H45.952V-.9h4.576ZM58.5-8.7H53.92v3.456h4.336v.9H53.92V0h-.928V-9.6h5.5Zm7.7,0H61.616v3.456h4.336v.9H61.616V0h-.928V-9.6h5.5Zm7.7,8.7h-5.5V-9.6h5.5v.9H69.312v3.456h4.336v.9H69.312V-.9h4.576Zm8.8-1.808a3.863,3.863,0,0,1-.368.624,3.858,3.858,0,0,1-.992,1.008,1.5,1.5,0,0,1-.816.256H78.4a1.522,1.522,0,0,1-.832-.256,3.38,3.38,0,0,1-.576-.512,5.468,5.468,0,0,1-.512-.592,1.378,1.378,0,0,1-.208-.768V-7.52a1.378,1.378,0,0,1,.208-.768,4.505,4.505,0,0,1,.512-.608,3.38,3.38,0,0,1,.576-.512,1.5,1.5,0,0,1,.816-.256h2.128a1.5,1.5,0,0,1,.816.256A3.858,3.858,0,0,1,82.32-8.4a3.863,3.863,0,0,1,.368.624L81.76-7.5a2.694,2.694,0,0,0-.48-.712,2.18,2.18,0,0,0-.592-.5.437.437,0,0,0-.224-.048h-2a.352.352,0,0,0-.208.048,2.175,2.175,0,0,0-.536.416,2.5,2.5,0,0,0-.472.592.5.5,0,0,0-.048.224V-2.08a.458.458,0,0,0,.048.208,2.5,2.5,0,0,0,.472.592,2.175,2.175,0,0,0,.536.416.352.352,0,0,0,.208.048h2a.387.387,0,0,0,.224-.048,2.279,2.279,0,0,0,.568-.5,3.568,3.568,0,0,0,.5-.7Zm7.76-6.9H87.712V0h-.928V-8.7H84.048v-.9h6.4Zm8.4,6.64a1.447,1.447,0,0,1-.192.784,5.171,5.171,0,0,1-.52.592,3.567,3.567,0,0,1-.584.512,1.5,1.5,0,0,1-.816.256H94.08a1.522,1.522,0,0,1-.832-.256,3.858,3.858,0,0,1-.992-1.008,2.816,2.816,0,0,1-.352-.624l.912-.256.112.192a2.735,2.735,0,0,0,.464.592,2.417,2.417,0,0,0,.512.416.387.387,0,0,0,.224.048h2.544a.366.366,0,0,0,.192-.048,3.014,3.014,0,0,0,.536-.408,2.306,2.306,0,0,0,.472-.552.459.459,0,0,0,.048-.208V-3.056a.834.834,0,0,0-.144-.472.652.652,0,0,0-.368-.28l-4.384-1.2a1.246,1.246,0,0,1-.72-.552,1.726,1.726,0,0,1-.272-.952V-7.5a1.447,1.447,0,0,1,.192-.784,5.565,5.565,0,0,1,.52-.6,3.457,3.457,0,0,1,.584-.52,1.5,1.5,0,0,1,.816-.256h2.384a1.5,1.5,0,0,1,.816.256A3.858,3.858,0,0,1,98.336-8.4a3.864,3.864,0,0,1,.368.624l-.928.272-.112-.208a2.539,2.539,0,0,0-.456-.584,2.473,2.473,0,0,0-.52-.424.4.4,0,0,0-.208-.048H94.224a.4.4,0,0,0-.208.048,2.6,2.6,0,0,0-.536.392,2.2,2.2,0,0,0-.456.536.5.5,0,0,0-.064.208v1.008a.772.772,0,0,0,.144.448.664.664,0,0,0,.352.272L97.824-4.64a1.279,1.279,0,0,1,.744.552,1.663,1.663,0,0,1,.28.936Z" transform="translate(910 847)" fill="#fff"/>
    <path id="Path_79" data-name="Path 79" d="M25.139,0h-5.5L17.449-5.691H7.434L5.366,0H0L9.758-25.054h5.349ZM15.825-9.912l-3.452-9.3-3.384,9.3ZM38.3-5.776l4.785.8A7.849,7.849,0,0,1,40.17-.966,8.56,8.56,0,0,1,35.188.41q-4.734,0-7.007-3.093a10.392,10.392,0,0,1-1.794-6.255A10.021,10.021,0,0,1,28.745-16a7.767,7.767,0,0,1,5.964-2.555A8.056,8.056,0,0,1,41.1-15.885Q43.442-13.21,43.34-7.69H31.309a4.859,4.859,0,0,0,1.162,3.324,3.635,3.635,0,0,0,2.769,1.188,2.94,2.94,0,0,0,1.9-.615A3.8,3.8,0,0,0,38.3-5.776Zm.273-4.854A4.624,4.624,0,0,0,37.5-13.8,3.3,3.3,0,0,0,35-14.885a3.335,3.335,0,0,0-2.6,1.145,4.431,4.431,0,0,0-1.008,3.11Z" transform="translate(939 802)" fill="#fd3649"/>
    <path id="Path_63" data-name="Path 63" d="M1454.415,318.5h162.908V489.587H1500.96l-46.545-39.563Z" transform="translate(-574 405)" fill="none" stroke="#00f0ff" stroke-width="1"/>
  </g>
</svg>
