<svg xmlns="http://www.w3.org/2000/svg" width="163.908" height="172.088" viewBox="0 0 163.908 172.088">
  <g id="illustrator" transform="translate(-1385.915 -461)">
    <path id="Path_73" data-name="Path 73" d="M1.712,0H.784V-9.6h.928ZM9.648,0H4.24V-9.6h.928V-.9h4.48Zm7.28,0H11.52V-9.6h.928V-.9h4.48Zm8.24-2.048a1.414,1.414,0,0,1-.192.768,5.469,5.469,0,0,1-.512.592,3.38,3.38,0,0,1-.576.512,1.5,1.5,0,0,1-.816.256H20.928A1.522,1.522,0,0,1,20.1-.176a3.38,3.38,0,0,1-.576-.512,5.469,5.469,0,0,1-.512-.592,1.378,1.378,0,0,1-.208-.768V-9.6h.928v7.52a.5.5,0,0,0,.064.208,2.5,2.5,0,0,0,.472.592,2.175,2.175,0,0,0,.536.416.352.352,0,0,0,.208.048h1.984A.352.352,0,0,0,23.2-.864a2.157,2.157,0,0,0,.5-.416,3.21,3.21,0,0,0,.472-.592.5.5,0,0,0,.064-.208V-9.6h.928Zm9.008-.016a1.447,1.447,0,0,1-.192.784,5.17,5.17,0,0,1-.52.592,3.567,3.567,0,0,1-.584.512,1.5,1.5,0,0,1-.816.256H29.408a1.522,1.522,0,0,1-.832-.256,3.858,3.858,0,0,1-.992-1.008,2.815,2.815,0,0,1-.352-.624l.912-.256.112.192a2.735,2.735,0,0,0,.464.592,2.417,2.417,0,0,0,.512.416.387.387,0,0,0,.224.048H32a.366.366,0,0,0,.192-.048,3.014,3.014,0,0,0,.536-.408,2.306,2.306,0,0,0,.472-.552.459.459,0,0,0,.048-.208V-3.056a.834.834,0,0,0-.144-.472.652.652,0,0,0-.368-.28l-4.384-1.2a1.246,1.246,0,0,1-.72-.552,1.726,1.726,0,0,1-.272-.952V-7.5a1.447,1.447,0,0,1,.192-.784,5.565,5.565,0,0,1,.52-.6,3.457,3.457,0,0,1,.584-.52,1.5,1.5,0,0,1,.816-.256h2.384a1.5,1.5,0,0,1,.816.256A3.858,3.858,0,0,1,33.664-8.4a3.863,3.863,0,0,1,.368.624L33.1-7.5l-.112-.208a2.539,2.539,0,0,0-.456-.584,2.473,2.473,0,0,0-.52-.424.4.4,0,0,0-.208-.048H29.552a.4.4,0,0,0-.208.048,2.6,2.6,0,0,0-.536.392,2.2,2.2,0,0,0-.456.536.5.5,0,0,0-.064.208v1.008a.772.772,0,0,0,.144.448.664.664,0,0,0,.352.272L33.152-4.64a1.279,1.279,0,0,1,.744.552,1.663,1.663,0,0,1,.28.936ZM42.064-8.7H39.328V0H38.4V-8.7H35.664v-.9h6.4Zm8.1,2.5a1.441,1.441,0,0,1-.24.832,2.939,2.939,0,0,1-.368.416,6.032,6.032,0,0,1-.448.416,1.444,1.444,0,0,1-.9.3L50.592,0H49.536L47.168-4.24h-2.4V0H43.84V-9.6h4.32a1.516,1.516,0,0,1,.944.3,5.435,5.435,0,0,1,.448.424,3.178,3.178,0,0,1,.368.424,1.441,1.441,0,0,1,.24.832Zm-.928-.032V-7.584a.729.729,0,0,0-.032-.272,2,2,0,0,0-.352-.448,2.237,2.237,0,0,0-.432-.352.561.561,0,0,0-.272-.048H44.768v3.568h3.376a.54.54,0,0,0,.272-.064,2.1,2.1,0,0,0,.448-.344,1.653,1.653,0,0,0,.336-.424A.729.729,0,0,0,49.232-6.24ZM58.7,0l-.72-2.224H53.536L52.8,0h-.976L55.04-9.6h1.44L59.7,0Zm-4.88-3.12H57.7l-1.84-5.568h-.208ZM66.192-8.7H63.456V0h-.928V-8.7H59.792v-.9h6.4Zm8.464,6.64a1.408,1.408,0,0,1-.208.784,5.468,5.468,0,0,1-.512.592,3.38,3.38,0,0,1-.576.512,1.522,1.522,0,0,1-.832.256H70a1.5,1.5,0,0,1-.816-.256A3.567,3.567,0,0,1,68.6-.688a5.171,5.171,0,0,1-.52-.592,1.447,1.447,0,0,1-.192-.784V-7.5a1.447,1.447,0,0,1,.192-.784,5.565,5.565,0,0,1,.52-.6,3.457,3.457,0,0,1,.584-.52A1.5,1.5,0,0,1,70-9.664h2.528a1.522,1.522,0,0,1,.832.256,3.38,3.38,0,0,1,.576.512,4.505,4.505,0,0,1,.512.608,1.408,1.408,0,0,1,.208.784Zm-.928-.016V-7.472a.534.534,0,0,0-.048-.24,2.5,2.5,0,0,0-.472-.592,2.175,2.175,0,0,0-.536-.416.4.4,0,0,0-.208-.048H70.08a.352.352,0,0,0-.208.048,2.393,2.393,0,0,0-.52.416,2.5,2.5,0,0,0-.472.592.54.54,0,0,0-.064.24V-2.08a.5.5,0,0,0,.064.208,2.5,2.5,0,0,0,.472.592,2.393,2.393,0,0,0,.52.416.352.352,0,0,0,.208.048h2.384a.4.4,0,0,0,.208-.048,2.175,2.175,0,0,0,.536-.416,2.5,2.5,0,0,0,.472-.592A.459.459,0,0,0,73.728-2.08ZM83.36-6.208a1.441,1.441,0,0,1-.24.832,2.939,2.939,0,0,1-.368.416,6.032,6.032,0,0,1-.448.416,1.444,1.444,0,0,1-.9.3L83.792,0H82.736L80.368-4.24h-2.4V0H77.04V-9.6h4.32a1.516,1.516,0,0,1,.944.3,5.435,5.435,0,0,1,.448.424,3.178,3.178,0,0,1,.368.424,1.441,1.441,0,0,1,.24.832Zm-.928-.032V-7.584a.728.728,0,0,0-.032-.272,2,2,0,0,0-.352-.448,2.237,2.237,0,0,0-.432-.352.561.561,0,0,0-.272-.048H77.968v3.568h3.376a.54.54,0,0,0,.272-.064,2.1,2.1,0,0,0,.448-.344,1.653,1.653,0,0,0,.336-.424A.728.728,0,0,0,82.432-6.24Z" transform="translate(1425 584)" fill="#fff"/>
    <path id="Path_74" data-name="Path 74" d="M25.139,0h-5.5L17.449-5.691H7.434L5.366,0H0L9.758-25.054h5.349ZM15.825-9.912l-3.452-9.3-3.384,9.3Zm11.963-10.7v-4.443h4.8v4.443Zm0,20.61V-18.149h4.8V0Z" transform="translate(1448 539)" fill="#fd3649"/>
    <path id="Path_57" data-name="Path 57" d="M1454.415,318.5h162.908V489.587H1500.96l-46.545-39.563Z" transform="translate(-68 143)" fill="none" stroke="#00f0ff" stroke-width="1"/>
  </g>
</svg>
