<svg xmlns="http://www.w3.org/2000/svg" width="163.908" height="172.088" viewBox="0 0 163.908 172.088">
  <g id="photoshop" transform="translate(-372.915 -723)">
    <path id="Path_75" data-name="Path 75" d="M7.1-6.208a1.441,1.441,0,0,1-.24.832A2.939,2.939,0,0,1,6.5-4.96a6.032,6.032,0,0,1-.448.416,1.516,1.516,0,0,1-.944.3H1.712V0H.784V-9.6H5.1a1.516,1.516,0,0,1,.944.3,5.435,5.435,0,0,1,.448.424,3.178,3.178,0,0,1,.368.424,1.441,1.441,0,0,1,.24.832ZM6.176-6.24V-7.584a.729.729,0,0,0-.032-.272A2,2,0,0,0,5.792-8.3a2.237,2.237,0,0,0-.432-.352A.561.561,0,0,0,5.088-8.7H1.712v3.568H5.088A.54.54,0,0,0,5.36-5.2a2.1,2.1,0,0,0,.448-.344,1.653,1.653,0,0,0,.336-.424A.729.729,0,0,0,6.176-6.24ZM15.52,0h-.928V-4.352H10.064V0H9.136V-9.6h.928v4.352h4.528V-9.6h.928Zm9.2-2.064a1.408,1.408,0,0,1-.208.784A5.469,5.469,0,0,1,24-.688a3.38,3.38,0,0,1-.576.512,1.522,1.522,0,0,1-.832.256H20.064a1.5,1.5,0,0,1-.816-.256,3.567,3.567,0,0,1-.584-.512,5.171,5.171,0,0,1-.52-.592,1.447,1.447,0,0,1-.192-.784V-7.5a1.447,1.447,0,0,1,.192-.784,5.565,5.565,0,0,1,.52-.6,3.457,3.457,0,0,1,.584-.52,1.5,1.5,0,0,1,.816-.256h2.528a1.522,1.522,0,0,1,.832.256A3.38,3.38,0,0,1,24-8.9a4.506,4.506,0,0,1,.512.608,1.408,1.408,0,0,1,.208.784Zm-.928-.016V-7.472a.534.534,0,0,0-.048-.24,2.5,2.5,0,0,0-.472-.592,2.175,2.175,0,0,0-.536-.416.4.4,0,0,0-.208-.048H20.144a.352.352,0,0,0-.208.048,2.393,2.393,0,0,0-.52.416,2.5,2.5,0,0,0-.472.592.54.54,0,0,0-.064.24V-2.08a.5.5,0,0,0,.064.208,2.5,2.5,0,0,0,.472.592,2.393,2.393,0,0,0,.52.416.352.352,0,0,0,.208.048h2.384a.4.4,0,0,0,.208-.048,2.175,2.175,0,0,0,.536-.416,2.5,2.5,0,0,0,.472-.592A.459.459,0,0,0,23.792-2.08ZM32.848-8.7H30.112V0h-.928V-8.7H26.448v-.9h6.4Zm8.464,6.64a1.408,1.408,0,0,1-.208.784,5.469,5.469,0,0,1-.512.592,3.38,3.38,0,0,1-.576.512,1.522,1.522,0,0,1-.832.256H36.656a1.5,1.5,0,0,1-.816-.256,3.567,3.567,0,0,1-.584-.512,5.171,5.171,0,0,1-.52-.592,1.447,1.447,0,0,1-.192-.784V-7.5a1.447,1.447,0,0,1,.192-.784,5.565,5.565,0,0,1,.52-.6,3.457,3.457,0,0,1,.584-.52,1.5,1.5,0,0,1,.816-.256h2.528a1.522,1.522,0,0,1,.832.256,3.38,3.38,0,0,1,.576.512,4.506,4.506,0,0,1,.512.608,1.408,1.408,0,0,1,.208.784Zm-.928-.016V-7.472a.534.534,0,0,0-.048-.24,2.5,2.5,0,0,0-.472-.592,2.175,2.175,0,0,0-.536-.416.4.4,0,0,0-.208-.048H36.736a.352.352,0,0,0-.208.048,2.393,2.393,0,0,0-.52.416,2.5,2.5,0,0,0-.472.592.54.54,0,0,0-.064.24V-2.08a.5.5,0,0,0,.064.208,2.5,2.5,0,0,0,.472.592,2.393,2.393,0,0,0,.52.416.352.352,0,0,0,.208.048H39.12a.4.4,0,0,0,.208-.048,2.175,2.175,0,0,0,.536-.416,2.5,2.5,0,0,0,.472-.592A.459.459,0,0,0,40.384-2.08Zm9.936.016a1.447,1.447,0,0,1-.192.784,5.171,5.171,0,0,1-.52.592,3.567,3.567,0,0,1-.584.512,1.5,1.5,0,0,1-.816.256H45.552a1.522,1.522,0,0,1-.832-.256,3.858,3.858,0,0,1-.992-1.008,2.815,2.815,0,0,1-.352-.624l.912-.256.112.192a2.735,2.735,0,0,0,.464.592,2.417,2.417,0,0,0,.512.416.387.387,0,0,0,.224.048h2.544a.366.366,0,0,0,.192-.048,3.014,3.014,0,0,0,.536-.408,2.306,2.306,0,0,0,.472-.552.459.459,0,0,0,.048-.208V-3.056a.834.834,0,0,0-.144-.472.652.652,0,0,0-.368-.28L44.5-5.008a1.246,1.246,0,0,1-.72-.552,1.726,1.726,0,0,1-.272-.952V-7.5a1.447,1.447,0,0,1,.192-.784,5.565,5.565,0,0,1,.52-.6,3.457,3.457,0,0,1,.584-.52,1.5,1.5,0,0,1,.816-.256H48a1.5,1.5,0,0,1,.816.256A3.858,3.858,0,0,1,49.808-8.4a3.863,3.863,0,0,1,.368.624l-.928.272-.112-.208A2.539,2.539,0,0,0,48.68-8.3a2.473,2.473,0,0,0-.52-.424.4.4,0,0,0-.208-.048H45.7a.4.4,0,0,0-.208.048,2.6,2.6,0,0,0-.536.392,2.2,2.2,0,0,0-.456.536.5.5,0,0,0-.064.208v1.008a.772.772,0,0,0,.144.448.664.664,0,0,0,.352.272L49.3-4.64a1.279,1.279,0,0,1,.744.552,1.663,1.663,0,0,1,.28.936ZM58.848,0H57.92V-4.352H53.392V0h-.928V-9.6h.928v4.352H57.92V-9.6h.928Zm9.2-2.064a1.408,1.408,0,0,1-.208.784,5.468,5.468,0,0,1-.512.592,3.38,3.38,0,0,1-.576.512A1.522,1.522,0,0,1,65.92.08H63.392a1.5,1.5,0,0,1-.816-.256,3.567,3.567,0,0,1-.584-.512,5.171,5.171,0,0,1-.52-.592,1.447,1.447,0,0,1-.192-.784V-7.5a1.447,1.447,0,0,1,.192-.784,5.565,5.565,0,0,1,.52-.6,3.457,3.457,0,0,1,.584-.52,1.5,1.5,0,0,1,.816-.256H65.92a1.522,1.522,0,0,1,.832.256,3.38,3.38,0,0,1,.576.512,4.505,4.505,0,0,1,.512.608,1.408,1.408,0,0,1,.208.784ZM67.12-2.08V-7.472a.534.534,0,0,0-.048-.24A2.5,2.5,0,0,0,66.6-8.3a2.175,2.175,0,0,0-.536-.416.4.4,0,0,0-.208-.048H63.472a.352.352,0,0,0-.208.048,2.393,2.393,0,0,0-.52.416,2.5,2.5,0,0,0-.472.592.54.54,0,0,0-.064.24V-2.08a.5.5,0,0,0,.064.208,2.5,2.5,0,0,0,.472.592,2.393,2.393,0,0,0,.52.416.352.352,0,0,0,.208.048h2.384a.4.4,0,0,0,.208-.048A2.175,2.175,0,0,0,66.6-1.28a2.5,2.5,0,0,0,.472-.592A.459.459,0,0,0,67.12-2.08Zm9.632-4.128a1.441,1.441,0,0,1-.24.832,2.939,2.939,0,0,1-.368.416,6.032,6.032,0,0,1-.448.416,1.516,1.516,0,0,1-.944.3H71.36V0h-.928V-9.6h4.32a1.516,1.516,0,0,1,.944.3,5.435,5.435,0,0,1,.448.424,3.178,3.178,0,0,1,.368.424,1.441,1.441,0,0,1,.24.832Zm-.928-.032V-7.584a.728.728,0,0,0-.032-.272A2,2,0,0,0,75.44-8.3a2.237,2.237,0,0,0-.432-.352.561.561,0,0,0-.272-.048H71.36v3.568h3.376a.54.54,0,0,0,.272-.064,2.1,2.1,0,0,0,.448-.344,1.653,1.653,0,0,0,.336-.424A.728.728,0,0,0,75.824-6.24Z" transform="translate(416 846)" fill="#fff"/>
    <path id="Path_76" data-name="Path 76" d="M2.546,0V-25.054h8.118a29.437,29.437,0,0,1,6.016.376,6.569,6.569,0,0,1,3.606,2.452,7.777,7.777,0,0,1,1.453,4.879,8.174,8.174,0,0,1-.837,3.879A6.87,6.87,0,0,1,18.773-11,7.332,7.332,0,0,1,16.15-9.81a28.876,28.876,0,0,1-5.247.359H7.6V0ZM7.6-20.815v7.109h2.769a13.081,13.081,0,0,0,4-.393,3.321,3.321,0,0,0,1.581-1.23,3.368,3.368,0,0,0,.573-1.948,3.236,3.236,0,0,0-.8-2.256,3.5,3.5,0,0,0-2.034-1.111,24.314,24.314,0,0,0-3.64-.171ZM24.165-5.178l4.819-.735a3.531,3.531,0,0,0,1.248,2.128,4.216,4.216,0,0,0,2.632.726,4.751,4.751,0,0,0,2.8-.684A1.526,1.526,0,0,0,36.3-5.024a1.261,1.261,0,0,0-.342-.906,3.826,3.826,0,0,0-1.606-.632Q28.54-7.844,26.985-8.9a4.676,4.676,0,0,1-2.153-4.084,5.034,5.034,0,0,1,1.863-3.965q1.863-1.606,5.776-1.606a10.077,10.077,0,0,1,5.537,1.213,6.2,6.2,0,0,1,2.5,3.589l-4.529.837a2.8,2.8,0,0,0-1.1-1.624,4.031,4.031,0,0,0-2.316-.564,5.217,5.217,0,0,0-2.717.53,1.138,1.138,0,0,0-.547.974,1.061,1.061,0,0,0,.479.872,18.017,18.017,0,0,0,4.486,1.35,13.355,13.355,0,0,1,5.358,2.136,4.44,4.44,0,0,1,1.5,3.572,5.482,5.482,0,0,1-2.085,4.29Q36.948.41,32.864.41a10.123,10.123,0,0,1-5.87-1.5A6.929,6.929,0,0,1,24.165-5.178Z" transform="translate(433 802)" fill="#fd3649"/>
    <path id="Path_59" data-name="Path 59" d="M1454.415,318.5h162.908V489.587H1500.96l-46.545-39.563Z" transform="translate(-1081 405)" fill="none" stroke="#00f0ff" stroke-width="1"/>
  </g>
</svg>
