<svg xmlns="http://www.w3.org/2000/svg" width="163.908" height="172.088" viewBox="0 0 163.908 172.088">
  <g id="premiere_pro" transform="translate(-625.915 -723)">
    <path id="Path_77" data-name="Path 77" d="M7.1-6.208a1.441,1.441,0,0,1-.24.832A2.939,2.939,0,0,1,6.5-4.96a6.032,6.032,0,0,1-.448.416,1.516,1.516,0,0,1-.944.3H1.712V0H.784V-9.6H5.1a1.516,1.516,0,0,1,.944.3,5.435,5.435,0,0,1,.448.424,3.178,3.178,0,0,1,.368.424,1.441,1.441,0,0,1,.24.832ZM6.176-6.24V-7.584a.729.729,0,0,0-.032-.272A2,2,0,0,0,5.792-8.3a2.237,2.237,0,0,0-.432-.352A.561.561,0,0,0,5.088-8.7H1.712v3.568H5.088A.54.54,0,0,0,5.36-5.2a2.1,2.1,0,0,0,.448-.344,1.653,1.653,0,0,0,.336-.424A.729.729,0,0,0,6.176-6.24Zm9.28.032a1.441,1.441,0,0,1-.24.832,2.939,2.939,0,0,1-.368.416,6.032,6.032,0,0,1-.448.416,1.444,1.444,0,0,1-.9.3L15.888,0H14.832L12.464-4.24h-2.4V0H9.136V-9.6h4.32a1.516,1.516,0,0,1,.944.3,5.435,5.435,0,0,1,.448.424,3.178,3.178,0,0,1,.368.424,1.441,1.441,0,0,1,.24.832Zm-.928-.032V-7.584a.729.729,0,0,0-.032-.272,2,2,0,0,0-.352-.448,2.237,2.237,0,0,0-.432-.352A.561.561,0,0,0,13.44-8.7H10.064v3.568H13.44a.54.54,0,0,0,.272-.064,2.1,2.1,0,0,0,.448-.344,1.653,1.653,0,0,0,.336-.424A.729.729,0,0,0,14.528-6.24ZM23.456,0h-5.5V-9.6h5.5v.9H18.88v3.456h4.336v.9H18.88V-.9h4.576ZM33.808,0h-.9V-8.608L30.176-2.576h-.624l-2.72-6.032V0h-.9V-9.6h1.328l2.608,5.616L32.5-9.6h1.312Zm3.44,0H36.32V-9.6h.928ZM45.28,0h-5.5V-9.6h5.5v.9H40.7v3.456H45.04v.9H40.7V-.9H45.28Zm8.784-6.208a1.441,1.441,0,0,1-.24.832,2.939,2.939,0,0,1-.368.416,6.032,6.032,0,0,1-.448.416,1.444,1.444,0,0,1-.9.3L54.5,0H53.44L51.072-4.24h-2.4V0h-.928V-9.6h4.32a1.516,1.516,0,0,1,.944.3,5.435,5.435,0,0,1,.448.424,3.178,3.178,0,0,1,.368.424,1.441,1.441,0,0,1,.24.832Zm-.928-.032V-7.584a.729.729,0,0,0-.032-.272,2,2,0,0,0-.352-.448,2.237,2.237,0,0,0-.432-.352.561.561,0,0,0-.272-.048H48.672v3.568h3.376A.54.54,0,0,0,52.32-5.2a2.1,2.1,0,0,0,.448-.344,1.653,1.653,0,0,0,.336-.424A.729.729,0,0,0,53.136-6.24ZM62.064,0h-5.5V-9.6h5.5v.9H57.488v3.456h4.336v.9H57.488V-.9h4.576ZM74.5-6.208a1.441,1.441,0,0,1-.24.832,2.939,2.939,0,0,1-.368.416,6.032,6.032,0,0,1-.448.416,1.516,1.516,0,0,1-.944.3H69.1V0h-.928V-9.6H72.5a1.516,1.516,0,0,1,.944.3,5.435,5.435,0,0,1,.448.424,3.178,3.178,0,0,1,.368.424,1.441,1.441,0,0,1,.24.832Zm-.928-.032V-7.584a.728.728,0,0,0-.032-.272,2,2,0,0,0-.352-.448,2.237,2.237,0,0,0-.432-.352A.561.561,0,0,0,72.48-8.7H69.1v3.568H72.48a.54.54,0,0,0,.272-.064,2.1,2.1,0,0,0,.448-.344,1.653,1.653,0,0,0,.336-.424A.728.728,0,0,0,73.568-6.24Zm9.28.032a1.441,1.441,0,0,1-.24.832,2.939,2.939,0,0,1-.368.416,6.033,6.033,0,0,1-.448.416,1.444,1.444,0,0,1-.9.3L83.28,0H82.224L79.856-4.24h-2.4V0h-.928V-9.6h4.32a1.516,1.516,0,0,1,.944.3,5.435,5.435,0,0,1,.448.424,3.178,3.178,0,0,1,.368.424,1.441,1.441,0,0,1,.24.832ZM81.92-6.24V-7.584a.728.728,0,0,0-.032-.272,2,2,0,0,0-.352-.448,2.237,2.237,0,0,0-.432-.352.561.561,0,0,0-.272-.048H77.456v3.568h3.376A.54.54,0,0,0,81.1-5.2a2.1,2.1,0,0,0,.448-.344,1.653,1.653,0,0,0,.336-.424A.728.728,0,0,0,81.92-6.24ZM92.032-2.064a1.408,1.408,0,0,1-.208.784,5.468,5.468,0,0,1-.512.592,3.38,3.38,0,0,1-.576.512A1.522,1.522,0,0,1,89.9.08H87.376a1.5,1.5,0,0,1-.816-.256,3.567,3.567,0,0,1-.584-.512,5.171,5.171,0,0,1-.52-.592,1.447,1.447,0,0,1-.192-.784V-7.5a1.447,1.447,0,0,1,.192-.784,5.565,5.565,0,0,1,.52-.6,3.457,3.457,0,0,1,.584-.52,1.5,1.5,0,0,1,.816-.256H89.9a1.522,1.522,0,0,1,.832.256,3.38,3.38,0,0,1,.576.512,4.505,4.505,0,0,1,.512.608,1.408,1.408,0,0,1,.208.784ZM91.1-2.08V-7.472a.534.534,0,0,0-.048-.24,2.5,2.5,0,0,0-.472-.592,2.175,2.175,0,0,0-.536-.416.4.4,0,0,0-.208-.048H87.456a.352.352,0,0,0-.208.048,2.393,2.393,0,0,0-.52.416,2.5,2.5,0,0,0-.472.592.539.539,0,0,0-.064.24V-2.08a.5.5,0,0,0,.064.208,2.5,2.5,0,0,0,.472.592,2.393,2.393,0,0,0,.52.416.352.352,0,0,0,.208.048H89.84a.4.4,0,0,0,.208-.048,2.175,2.175,0,0,0,.536-.416,2.5,2.5,0,0,0,.472-.592A.459.459,0,0,0,91.1-2.08Z" transform="translate(660 847)" fill="#fff"/>
    <path id="Path_78" data-name="Path 78" d="M2.546,0V-25.054h8.118a29.437,29.437,0,0,1,6.016.376,6.569,6.569,0,0,1,3.606,2.452,7.777,7.777,0,0,1,1.453,4.879,8.174,8.174,0,0,1-.837,3.879A6.87,6.87,0,0,1,18.773-11,7.332,7.332,0,0,1,16.15-9.81a28.876,28.876,0,0,1-5.247.359H7.6V0ZM7.6-20.815v7.109h2.769a13.081,13.081,0,0,0,4-.393,3.321,3.321,0,0,0,1.581-1.23,3.368,3.368,0,0,0,.573-1.948,3.236,3.236,0,0,0-.8-2.256,3.5,3.5,0,0,0-2.034-1.111,24.314,24.314,0,0,0-3.64-.171ZM30.454,0h-4.8V-18.149h4.46v2.581a7.757,7.757,0,0,1,2.059-2.41,3.788,3.788,0,0,1,2.076-.581,6.1,6.1,0,0,1,3.162.906l-1.487,4.187a4.214,4.214,0,0,0-2.256-.786,2.665,2.665,0,0,0-1.709.555,3.8,3.8,0,0,0-1.1,2.008,28.527,28.527,0,0,0-.4,6.084Z" transform="translate(689 802)" fill="#fd3649"/>
    <path id="Path_61" data-name="Path 61" d="M1454.415,318.5h162.908V489.587H1500.96l-46.545-39.563Z" transform="translate(-828 405)" fill="none" stroke="#00f0ff" stroke-width="1"/>
  </g>
</svg>
