<svg xmlns="http://www.w3.org/2000/svg" width="128.47" height="1000.213" viewBox="0 0 128.47 1000.213">
  <path id="proficiencies_decal" d="M98.28-78.12A22.571,22.571,0,0,1,94.5-65.31a45.535,45.535,0,0,1-5.25,5.775,61.015,61.015,0,0,1-6.09,5.355,25.117,25.117,0,0,1-14.91,4.62H31.29V0H9.24V-125.58H68.25a25.117,25.117,0,0,1,14.91,4.62,48.183,48.183,0,0,1,5.985,5.46,56.21,56.21,0,0,1,5.355,6.09A22.571,22.571,0,0,1,98.28-96.6Zm-22.05-.21V-96.39a3.6,3.6,0,0,0-.21-1.47q-3.57-6.3-6.72-6.72H31.29v34.02H68.25q1.47,0,3.99-2.31a18.311,18.311,0,0,0,3.78-4.62A1.864,1.864,0,0,0,76.23-78.33Zm134.82.21a22.571,22.571,0,0,1-3.78,12.81,45.534,45.534,0,0,1-5.25,5.775,61.015,61.015,0,0,1-6.09,5.355,17.431,17.431,0,0,1-5.46,2.94L215.46,0H191.52L168.21-49.56H144.06V0H122.01V-125.58h59.01a25.118,25.118,0,0,1,14.91,4.62,48.183,48.183,0,0,1,5.985,5.46,56.209,56.209,0,0,1,5.355,6.09,22.571,22.571,0,0,1,3.78,12.81ZM189-78.33V-96.39a3.6,3.6,0,0,0-.21-1.47q-3.57-6.3-6.72-6.72H144.06v34.02h36.96q1.47,0,3.99-2.31a18.312,18.312,0,0,0,3.78-4.62A1.864,1.864,0,0,0,189-78.33ZM339.15-29.82a21.074,21.074,0,0,1-3.36,11.97,89.868,89.868,0,0,1-7.455,8.4,41.311,41.311,0,0,1-7.875,6.72,24.264,24.264,0,0,1-13.02,3.78H275.52A24.264,24.264,0,0,1,262.5-2.73a44.275,44.275,0,0,1-8.085-6.825,60.385,60.385,0,0,1-7.245-8.3,21.074,21.074,0,0,1-3.36-11.97V-95.55a21.074,21.074,0,0,1,3.36-11.97,60.385,60.385,0,0,1,7.245-8.295,44.275,44.275,0,0,1,8.085-6.825,24.264,24.264,0,0,1,13.02-3.78h31.92a24.264,24.264,0,0,1,13.02,3.78,41.312,41.312,0,0,1,7.875,6.72,89.878,89.878,0,0,1,7.455,8.4,21.074,21.074,0,0,1,3.36,11.97Zm-73.29-65.1v64.89a1.216,1.216,0,0,0,.21.84,26.831,26.831,0,0,0,9.24,9.03,2.337,2.337,0,0,0,1.05.21H306.6a2.338,2.338,0,0,0,1.05-.21,26.83,26.83,0,0,0,9.24-9.03l.21-.84V-94.92a1.661,1.661,0,0,0-.21-1.05q-4.41-6.51-9.24-9.24a2.338,2.338,0,0,0-1.05-.21H276.36a1.661,1.661,0,0,0-1.05.21q-4.83,2.73-9.24,9.24Zm180.18-9.66h-56.7v31.71h52.92v21H389.34V0H367.29V-125.58h78.75ZM493.08,0H471.03V-125.58h22.05ZM612.36-24.36a41.608,41.608,0,0,1-4.41,7.98Q594.93,1.05,581.28,1.05H555.03a24.264,24.264,0,0,1-13.02-3.78,47.5,47.5,0,0,1-8.19-6.93,70.645,70.645,0,0,1-7.14-7.98,21.075,21.075,0,0,1-3.36-11.97V-95.76a20.7,20.7,0,0,1,3.36-11.76,60.387,60.387,0,0,1,7.245-8.295,44.274,44.274,0,0,1,8.085-6.825,26.527,26.527,0,0,1,13.02-3.78h26.25q13.44,0,26.67,17.43a79.479,79.479,0,0,1,4.41,7.35l-21.42,6.09q-6.3-7.77-9.45-9.66a1.216,1.216,0,0,0-.84-.21H555.87l-.84.21a25.832,25.832,0,0,0-9.45,9.24,7.149,7.149,0,0,0-.21,2.31v63.84q0,1.68,3.465,4.935a30.944,30.944,0,0,0,6.2,4.725,2.792,2.792,0,0,0,1.47.21h23.94a2.338,2.338,0,0,0,1.05-.21,14.76,14.76,0,0,0,4.3-3.36,40.039,40.039,0,0,0,3.885-4.62l1.26-1.89ZM661.5,0H639.45V-125.58H661.5ZM770.7,0H691.74V-125.58H770.7v21H713.79v31.71h52.92v21H713.79V-21H770.7ZM888.93,0H865.62L822.15-83.37V0H800.1V-125.58h23.73l43.05,84.42v-84.42h22.05Zm119.28-24.36a41.608,41.608,0,0,1-4.41,7.98Q990.78,1.05,977.13,1.05H950.88a24.264,24.264,0,0,1-13.02-3.78,47.5,47.5,0,0,1-8.19-6.93,70.645,70.645,0,0,1-7.14-7.98,21.075,21.075,0,0,1-3.36-11.97V-95.76a20.7,20.7,0,0,1,3.36-11.76,60.387,60.387,0,0,1,7.245-8.295,44.274,44.274,0,0,1,8.085-6.825,26.527,26.527,0,0,1,13.02-3.78h26.25q13.44,0,26.67,17.43a79.479,79.479,0,0,1,4.41,7.35l-21.42,6.09q-6.3-7.77-9.45-9.66a1.216,1.216,0,0,0-.84-.21H951.72l-.84.21a25.832,25.832,0,0,0-9.45,9.24,7.149,7.149,0,0,0-.21,2.31v63.84q0,1.68,3.465,4.935a30.944,30.944,0,0,0,6.2,4.725,2.792,2.792,0,0,0,1.47.21h23.94a2.338,2.338,0,0,0,1.05-.21,14.76,14.76,0,0,0,4.3-3.36,40.039,40.039,0,0,0,3.885-4.62l1.26-1.89Z" transform="translate(126.92 1008.953) rotate(-90)" fill="none" stroke="#707070" stroke-width="1"/>
</svg>
