<svg xmlns="http://www.w3.org/2000/svg" width="163.908" height="172.088" viewBox="0 0 163.908 172.088">
  <g id="xd" transform="translate(-1145.915 -679)">
    <path id="Path_72" data-name="Path 72" d="M0,0,8.562-13.074.8-25.054H6.716L11.741-17l4.922-8.049h5.862L14.731-12.886,23.293,0h-6.1L11.638-8.665,6.067,0ZM42.5,0h-4.46V-2.666A7.206,7.206,0,0,1,35.419-.35a6.73,6.73,0,0,1-3.051.76A6.913,6.913,0,0,1,27.01-2.111a10.254,10.254,0,0,1-2.23-7.032q0-4.614,2.17-7.015a7.076,7.076,0,0,1,5.486-2.4A6.8,6.8,0,0,1,37.7-16.03v-9.023h4.8ZM29.685-9.468a8.311,8.311,0,0,0,.8,4.2,3.629,3.629,0,0,0,3.247,1.88,3.534,3.534,0,0,0,2.82-1.41,6.507,6.507,0,0,0,1.162-4.213,7.122,7.122,0,0,0-1.128-4.5A3.569,3.569,0,0,0,33.7-14.885a3.608,3.608,0,0,0-2.863,1.359A6.139,6.139,0,0,0,29.685-9.468Z" transform="translate(1205 758)" fill="#fd3649"/>
    <path id="Path_71" data-name="Path 71" d="M6.426,0,3.74-4.335,1.054,0H-.051L3.2-5.219.119-10.2H1.207L3.74-6.1Q5.7-9.282,6.273-10.2H7.361L4.3-5.219,7.531,0ZM16-2.261a1.5,1.5,0,0,1-.2.816,5.811,5.811,0,0,1-.544.629,3.591,3.591,0,0,1-.612.544A1.591,1.591,0,0,1,13.77,0H9.282V-10.2H13.77a1.554,1.554,0,0,1,.867.255,3.487,3.487,0,0,1,.612.553,5.111,5.111,0,0,1,.544.655,1.5,1.5,0,0,1,.2.816Zm-.986-5.627a.568.568,0,0,0-.051-.255,2.609,2.609,0,0,0-.493-.62,2.26,2.26,0,0,0-.561-.434.425.425,0,0,0-.221-.051H10.268v8.3h3.417A.425.425,0,0,0,13.906-1a2.2,2.2,0,0,0,.561-.442,2.748,2.748,0,0,0,.493-.629.487.487,0,0,0,.051-.221Z" transform="translate(1220 804)" fill="#fff"/>
    <path id="Path_55" data-name="Path 55" d="M1454.415,318.5h162.908V489.587H1500.96l-46.545-39.563Z" transform="translate(-308 361)" fill="none" stroke="#00f0ff" stroke-width="1"/>
  </g>
</svg>
