<svg xmlns="http://www.w3.org/2000/svg" width="128.47" height="462.58" viewBox="0 0 128.47 462.58">
  <path id="home_decal" d="M99.12,0H77.07V-51.87H31.29V0H9.24V-125.58H31.29v52.71H77.07v-52.71H99.12ZM224.91-29.82a21.074,21.074,0,0,1-3.36,11.97,89.87,89.87,0,0,1-7.455,8.4,41.311,41.311,0,0,1-7.875,6.72A24.264,24.264,0,0,1,193.2,1.05H161.28a24.264,24.264,0,0,1-13.02-3.78,44.274,44.274,0,0,1-8.085-6.825,60.385,60.385,0,0,1-7.245-8.3,21.074,21.074,0,0,1-3.36-11.97V-95.55a21.074,21.074,0,0,1,3.36-11.97,60.385,60.385,0,0,1,7.245-8.295,44.274,44.274,0,0,1,8.085-6.825,24.264,24.264,0,0,1,13.02-3.78H193.2a24.264,24.264,0,0,1,13.02,3.78,41.311,41.311,0,0,1,7.875,6.72,89.874,89.874,0,0,1,7.455,8.4,21.074,21.074,0,0,1,3.36,11.97Zm-73.29-65.1v64.89a1.216,1.216,0,0,0,.21.84,26.831,26.831,0,0,0,9.24,9.03,2.338,2.338,0,0,0,1.05.21h30.24a2.338,2.338,0,0,0,1.05-.21,26.831,26.831,0,0,0,9.24-9.03l.21-.84V-94.92a1.661,1.661,0,0,0-.21-1.05q-4.41-6.51-9.24-9.24a2.338,2.338,0,0,0-1.05-.21H162.12a1.661,1.661,0,0,0-1.05.21q-4.83,2.73-9.24,9.24ZM361.62,0H339.57V-85.89L314.58-30.87H300.09L275.1-85.68V0H253.05V-125.58h25.2l29.4,61.95,28.98-61.95h24.99Zm109.2,0H391.86V-125.58h78.96v21H413.91v31.71h52.92v21H413.91V-21h56.91Z" transform="translate(126.92 471.32) rotate(-90)" fill="none" stroke="#fff" stroke-width="1"/>
</svg>
